<?xml version="1.0" standalone="no"?>
<!DOCTYPE svg PUBLIC "-//W3C//DTD SVG 20010904//EN"
 "http://www.w3.org/TR/2001/REC-SVG-20010904/DTD/svg10.dtd">
<svg version="1.0" xmlns="http://www.w3.org/2000/svg"
 width="512.000000pt" height="512.000000pt" viewBox="0 0 512.000000 512.000000"
 preserveAspectRatio="xMidYMid meet">

<g transform="translate(0.000000,512.000000) scale(0.100000,-0.100000)"
fill="#000000" stroke="none">
<path d="M1803 3520 l-438 -480 -202 0 -203 0 0 -480 0 -480 200 0 199 0 441
-480 441 -480 160 0 159 0 0 1440 0 1440 -160 0 -159 0 -438 -480z m435 -1451
l-3 -491 -370 410 -370 411 -107 1 -108 0 0 160 0 160 108 0 108 0 370 411
369 411 3 -491 c1 -270 1 -712 0 -982z"/>
<path d="M3416 3571 l-109 -110 51 -56 c104 -114 197 -273 250 -430 149 -440
60 -905 -243 -1258 l-59 -68 113 -112 112 -112 57 64 c389 435 512 1030 326
1581 -48 140 -140 316 -226 431 -66 89 -146 179 -158 179 -3 0 -54 -49 -114
-109z"/>
<path d="M2967 3122 l-108 -109 54 -75 c94 -132 135 -270 124 -422 -10 -135
-60 -266 -138 -358 -21 -26 -39 -50 -39 -55 0 -5 49 -57 109 -117 l109 -108
38 42 c209 231 290 561 214 870 -28 114 -104 268 -180 363 -34 42 -65 77 -69
77 -3 0 -55 -49 -114 -108z"/>
</g>
</svg>
