<?xml version="1.0" standalone="no"?>
<!DOCTYPE svg PUBLIC "-//W3C//DTD SVG 20010904//EN"
 "http://www.w3.org/TR/2001/REC-SVG-20010904/DTD/svg10.dtd">
<svg version="1.0" xmlns="http://www.w3.org/2000/svg"
 width="294.000000pt" height="294.000000pt" viewBox="0 0 294.000000 294.000000"
 preserveAspectRatio="xMidYMid meet">

<g transform="translate(0.000000,294.000000) scale(0.100000,-0.100000)"
fill="#000000" stroke="none">
<path d="M1586 2762 c-7 -6 -41 -12 -66 -12 -167 5 -226 -2 -233 -28 -3 -12
-5 -11 -6 5 -1 30 -38 27 -70 -7 -13 -14 -20 -19 -17 -12 12 20 -13 13 -26 -8
-15 -24 -28 -26 -28 -5 0 8 -5 15 -11 15 -5 0 -7 -5 -3 -11 5 -8 2 -9 -10 -2
-14 7 -25 2 -51 -24 -19 -19 -43 -33 -57 -33 -13 0 -34 -9 -46 -20 -12 -11
-25 -21 -29 -22 -17 -5 -62 -51 -57 -59 3 -5 -4 -9 -14 -9 -11 0 -22 -6 -25
-14 -4 -9 -14 -12 -27 -9 -16 4 -19 2 -14 -11 3 -9 1 -16 -6 -16 -16 0 -35
-22 -35 -40 0 -8 -10 -16 -22 -18 -14 -2 -23 -11 -25 -25 -2 -14 -11 -23 -25
-25 -12 -2 -25 -11 -28 -21 -3 -9 -21 -34 -40 -54 -19 -20 -32 -37 -28 -37 4
0 2 -5 -4 -11 -8 -8 -4 -18 15 -35 22 -19 24 -23 10 -24 -10 0 -18 4 -18 10 0
5 -9 14 -21 21 -20 10 -21 9 -14 -20 4 -18 3 -31 -3 -31 -15 0 -25 -51 -13
-63 18 -18 13 -29 -9 -22 -16 5 -20 2 -20 -15 0 -12 -4 -19 -9 -16 -5 4 -8 -5
-6 -19 1 -16 -3 -25 -11 -25 -17 0 -14 -19 6 -40 9 -8 11 -12 5 -8 -18 12 -25
-1 -18 -33 3 -17 1 -29 -5 -29 -5 0 -8 -9 -5 -20 3 -11 1 -20 -4 -20 -5 0 -9
-26 -8 -57 0 -32 -4 -64 -9 -71 -5 -7 -11 -63 -12 -123 -1 -61 -4 -112 -6
-115 -7 -7 -68 17 -68 27 0 5 -6 9 -14 9 -7 0 -16 9 -19 21 -3 11 -15 23 -26
26 -11 3 -18 9 -15 14 6 11 -7 12 -22 1 -15 -10 -24 -52 -11 -52 6 0 8 -3 4
-6 -3 -3 6 -16 21 -29 15 -13 23 -27 19 -31 -4 -5 -12 -2 -17 6 -14 22 -21 7
-14 -29 5 -25 10 -30 25 -26 14 5 19 1 19 -12 0 -13 12 -23 35 -32 19 -7 35
-17 35 -22 0 -5 21 -19 47 -32 35 -17 47 -19 51 -9 3 10 9 9 23 -4 18 -16 21
-16 36 -1 15 15 15 17 -8 25 -13 6 -27 8 -31 6 -4 -3 -6 4 -5 14 1 13 7 18 19
14 13 -3 17 0 13 9 -4 10 5 14 35 14 22 1 40 -4 40 -10 0 -5 5 -3 10 5 6 10
10 11 10 3 0 -8 10 -4 25 9 14 12 25 26 25 32 0 12 78 86 91 86 5 0 9 7 9 15
0 8 4 15 9 15 14 0 8 69 -6 74 -16 7 -43 -3 -43 -15 0 -5 -6 -9 -13 -9 -16 0
-57 -42 -57 -58 0 -7 -5 -12 -11 -12 -5 0 -24 -13 -42 -30 -18 -16 -38 -30
-45 -30 -7 0 -15 -7 -18 -15 -8 -19 -34 -20 -34 -1 0 8 -10 22 -22 32 -16 11
-17 15 -6 11 14 -5 18 -1 18 18 0 14 5 25 10 25 7 0 7 6 1 19 -6 10 -8 20 -6
22 2 3 6 43 10 89 9 141 17 184 34 198 9 7 10 11 3 7 -16 -8 -5 76 12 87 6 4
8 8 4 8 -5 0 6 27 24 61 27 51 30 62 17 70 -10 8 -9 9 7 4 26 -7 39 17 24 45
-9 17 -8 18 7 13 16 -6 16 -5 4 10 -11 14 -11 17 1 17 18 0 50 38 43 50 -4 6
1 10 9 10 9 0 16 7 16 15 0 8 7 15 15 15 9 0 12 6 9 15 -4 8 -1 15 5 15 6 0
11 9 11 21 0 15 5 19 15 15 10 -3 15 1 15 14 0 10 9 21 20 25 11 3 19 9 19 13
-4 22 4 30 24 26 12 -2 16 -2 10 2 -10 4 -9 10 4 22 9 9 19 17 23 17 3 0 21
16 40 35 21 21 42 34 53 32 12 -2 17 1 13 7 -6 10 13 16 37 12 4 0 7 4 7 9 0
6 12 16 26 22 19 9 24 17 20 32 -5 19 -4 20 8 4 16 -22 30 -23 46 -3 8 10 18
12 28 6 9 -5 25 -3 40 5 14 7 29 11 34 8 4 -3 8 -1 8 3 0 5 23 8 50 7 32 -1
50 3 50 10 0 8 -14 11 -37 9 -35 -3 -33 0 7 13 13 5 13 6 0 14 -20 13 -3 12
21 0 10 -6 19 -7 19 -3 0 5 15 8 34 8 19 0 32 -2 30 -4 -2 -2 0 -9 5 -15 7 -8
-2 -10 -32 -7 -37 3 -40 2 -25 -13 17 -16 101 -17 116 0 4 4 1 4 -5 0 -7 -4
-13 -2 -13 4 0 6 -4 9 -9 6 -15 -9 -31 18 -21 34 6 10 10 11 10 3 0 -9 7 -10
27 -2 14 5 34 7 42 3 9 -4 39 -7 66 -7 32 1 57 -5 69 -16 10 -9 19 -16 20 -15
36 20 45 23 48 13 2 -5 10 -11 18 -12 8 -2 20 -6 27 -10 6 -4 14 -3 18 3 4 6
12 7 18 3 7 -4 21 -9 32 -10 10 -2 22 -7 25 -11 3 -5 21 -16 40 -25 43 -21 80
-51 80 -67 0 -6 5 -8 12 -4 7 5 8 3 3 -6 -5 -8 -3 -11 5 -8 16 5 70 -41 70
-60 0 -7 -5 -10 -10 -7 -6 4 -8 11 -5 16 4 5 -3 9 -14 9 -13 0 -21 7 -21 16 0
10 -6 14 -15 10 -8 -3 -15 0 -15 6 0 6 -3 8 -7 5 -3 -4 -12 1 -20 11 -8 9 -12
11 -8 5 3 -7 1 -13 -4 -13 -6 0 -11 -4 -11 -10 0 -6 3 -9 8 -9 4 1 10 0 15 -1
12 -4 26 -7 37 -9 6 0 10 -8 10 -18 0 -9 3 -14 6 -10 4 3 13 0 21 -8 8 -8 26
-15 41 -16 15 0 21 -3 15 -6 -8 -3 -1 -17 21 -39 36 -37 59 -45 49 -16 -3 10
2 7 13 -8 10 -13 19 -32 19 -41 1 -10 15 -31 31 -48 44 -45 65 -71 57 -71 -3
0 5 -9 18 -21 13 -11 24 -26 24 -32 0 -18 56 -87 70 -87 7 0 15 -7 19 -15 3
-8 1 -15 -4 -15 -6 0 -10 5 -10 10 0 6 -4 10 -9 10 -12 0 8 -41 32 -64 9 -10
21 -15 27 -11 5 3 12 -6 16 -20 7 -30 29 -44 55 -38 23 6 24 22 5 48 -8 11
-11 25 -9 32 3 8 -3 23 -12 33 -10 11 -15 23 -12 26 9 9 -11 44 -25 44 -9 0
-9 -3 0 -12 21 -21 13 -27 -18 -17 -26 10 -35 24 -32 50 1 4 -8 4 -20 1 -17
-4 -20 -2 -15 11 4 10 3 17 -2 17 -16 0 -32 51 -21 68 5 9 10 12 10 5 0 -7 6
-10 13 -8 11 4 62 -66 62 -86 0 -5 4 -9 10 -10 18 -1 16 17 -5 40 -11 13 -17
29 -13 35 3 6 3 8 -1 5 -4 -4 -18 4 -32 18 -16 16 -32 23 -44 20 -11 -3 -19
-2 -18 2 3 26 -4 33 -27 27 -14 -4 -25 -2 -25 4 0 5 12 10 26 10 23 0 24 2 10
15 -8 8 -20 15 -26 15 -11 0 -50 81 -50 105 0 7 -7 16 -16 19 -8 3 -13 9 -10
14 2 4 -5 8 -17 9 l-22 1 23 -15 c12 -8 22 -18 22 -22 0 -13 -72 1 -77 15 -3
8 -8 12 -12 9 -5 -2 -22 11 -40 29 -31 32 -31 32 -11 51 12 11 20 13 20 6 0
-7 5 -9 13 -5 7 5 6 0 -3 -11 -14 -17 -13 -18 2 -12 11 4 17 2 15 -5 -1 -6 3
-12 9 -15 10 -3 12 17 5 48 -3 14 -81 31 -81 17 0 -4 5 -8 11 -8 8 0 8 -5 -1
-15 -10 -12 -16 -13 -26 -4 -8 6 -11 16 -7 22 4 6 0 8 -10 4 -10 -3 -17 -2
-17 3 0 6 7 10 15 10 8 0 15 7 15 15 0 21 -9 19 -33 -7 -16 -18 -19 -19 -14
-5 9 25 -9 57 -33 57 -10 0 -25 7 -34 15 -8 8 -21 15 -28 15 -8 0 -19 5 -26
12 -7 7 -12 9 -12 5 0 -4 -18 3 -40 14 -21 11 -44 18 -49 14 -6 -3 -31 1 -57
10 -25 8 -50 13 -55 9 -5 -3 -25 3 -43 14 -19 11 -37 18 -40 14z m-476 -92 c0
-5 -5 -10 -11 -10 -5 0 -7 5 -4 10 3 6 8 10 11 10 2 0 4 -4 4 -10z m-165 -100
c-3 -5 -11 -10 -16 -10 -6 0 -7 5 -4 10 3 6 11 10 16 10 6 0 7 -4 4 -10z
m1285 -160 c18 -16 20 -20 7 -20 -10 0 -17 5 -17 11 0 5 -5 7 -12 3 -6 -4 -8
-3 -4 4 3 6 -2 13 -11 15 -15 4 -15 5 -2 6 9 0 26 -8 39 -19z m-1500 -91 c0
-6 -4 -7 -10 -4 -5 3 -10 11 -10 16 0 6 5 7 10 4 6 -3 10 -11 10 -16z m1508 3
c6 -18 -15 -14 -22 4 -4 10 -1 14 6 12 6 -2 14 -10 16 -16z m-1571 -34 c-18
-11 -29 2 -16 18 10 12 14 12 20 2 4 -7 3 -16 -4 -20z m-127 -242 c0 -3 -4 -8
-10 -11 -5 -3 -10 -1 -10 4 0 6 5 11 10 11 6 0 10 -2 10 -4z m1947 -61 c0 -8
-4 -12 -9 -9 -4 3 -8 9 -8 15 0 5 4 9 8 9 5 0 9 -7 9 -15z m-1957 1 c0 -3 -4
-8 -10 -11 -5 -3 -10 -1 -10 4 0 6 5 11 10 11 6 0 10 -2 10 -4z"/>
<path d="M1510 2660 c0 -6 12 -15 26 -20 32 -13 37 -12 29 0 -8 13 -3 13 32
-1 35 -15 64 -18 57 -7 -3 4 -12 8 -20 8 -8 0 -14 6 -14 13 0 10 -16 14 -55
16 -33 1 -55 -3 -55 -9z"/>
<path d="M1672 2630 c7 -10 14 -17 16 -15 3 2 13 0 23 -6 15 -7 19 -6 19 5 0
8 -14 19 -31 25 -41 14 -41 14 -27 -9z"/>
<path d="M1760 2615 c0 -21 28 -31 43 -15 10 10 7 11 -12 5 -15 -5 -21 -4 -17
3 3 6 2 13 -4 17 -5 3 -10 -1 -10 -10z"/>
<path d="M1811 2586 c-18 -22 3 -28 35 -11 16 8 24 15 17 15 -6 0 -18 2 -26 5
-7 3 -19 -1 -26 -9z"/>
<path d="M1879 2549 c13 -11 26 -17 29 -14 8 8 -20 35 -37 35 -12 -1 -11 -5 8
-21z"/>
<path d="M2174 2495 c-9 -22 1 -29 15 -11 8 10 9 16 1 21 -5 3 -13 -1 -16 -10z"/>
<path d="M2170 2360 c0 -5 5 -10 11 -10 5 0 7 5 4 10 -3 6 -8 10 -11 10 -2 0
-4 -4 -4 -10z"/>
<path d="M1780 2120 c-8 -5 -11 -10 -6 -10 4 0 -8 -17 -28 -37 -20 -21 -36
-40 -36 -44 0 -3 -17 -24 -37 -46 -47 -50 -87 -96 -88 -103 -6 -22 -28 -67
-38 -75 -7 -5 -23 -35 -37 -65 -14 -30 -31 -61 -37 -68 -7 -7 -16 -24 -19 -38
-3 -13 -10 -24 -15 -24 -5 0 -9 -6 -9 -14 0 -16 -19 -25 -37 -19 -7 3 -13 11
-13 19 0 8 -7 14 -16 14 -11 0 -15 -6 -11 -20 6 -23 1 -25 -18 -6 -9 9 -12 26
-8 49 4 29 2 37 -17 47 -12 7 -19 17 -16 26 3 8 -1 14 -9 14 -20 0 -30 -4 -28
-11 1 -3 -4 -6 -12 -6 -19 0 -14 20 7 29 20 8 13 48 -8 48 -8 0 -14 9 -14 20
0 11 -9 29 -20 40 -11 11 -17 20 -12 20 4 0 1 4 -7 9 -8 5 -16 17 -17 27 -2
10 -10 21 -18 26 -9 5 -16 15 -16 23 0 9 -6 12 -15 9 -8 -4 -15 -1 -15 5 0 6
-7 11 -14 11 -8 0 -28 17 -43 37 -15 20 -41 49 -56 64 -39 39 -69 25 -61 -28
2 -13 5 -32 7 -42 2 -10 16 -35 31 -55 15 -20 24 -41 21 -46 -3 -6 -1 -10 5
-10 7 0 9 -7 6 -16 -8 -22 11 -55 69 -118 6 -6 17 -25 25 -41 31 -63 96 -153
118 -164 13 -6 28 -24 33 -40 6 -15 21 -33 34 -39 14 -7 25 -20 25 -29 0 -34
-20 -90 -40 -113 -11 -12 -25 -35 -32 -51 -7 -16 -16 -29 -20 -29 -5 0 -8 -8
-8 -18 0 -11 -9 -27 -19 -36 -11 -10 -17 -25 -14 -37 3 -10 1 -19 -5 -19 -6 0
-14 -9 -17 -20 -3 -11 -12 -20 -20 -20 -8 0 -17 -10 -20 -22 -4 -13 -16 -33
-28 -45 -16 -18 -18 -25 -8 -37 7 -8 10 -20 6 -26 -3 -5 -3 -10 2 -10 4 0 16
-14 25 -31 16 -27 21 -30 50 -24 46 10 89 37 84 52 -3 7 2 13 10 13 11 0 15 6
11 20 -3 11 -1 20 4 20 11 0 59 101 59 123 0 8 7 17 15 21 8 3 15 17 15 31 0
14 7 28 15 31 9 4 14 14 13 23 -2 9 3 15 10 13 9 -2 11 4 7 18 -4 13 0 26 11
37 25 25 41 24 59 -4 24 -36 48 -63 57 -63 5 0 28 -20 51 -45 24 -25 48 -45
53 -45 6 0 27 -18 47 -39 20 -22 51 -45 67 -53 17 -7 30 -19 30 -25 0 -7 10
-13 22 -13 12 0 31 -8 42 -19 12 -10 31 -22 44 -26 19 -5 22 -3 22 19 0 15 -6
26 -13 26 -17 0 -67 55 -67 74 0 8 -13 20 -29 27 -18 8 -27 18 -24 27 5 13
-48 74 -54 62 -1 -3 -13 4 -25 14 -12 11 -32 21 -43 22 -11 1 -23 3 -27 3 -3
1 -9 15 -13 31 -4 17 -10 30 -15 30 -16 0 -119 113 -121 135 -6 45 -5 55 7 59
17 7 18 32 2 42 -7 4 -8 3 -4 -4 4 -8 2 -10 -8 -6 -12 5 -13 9 -3 25 14 22 39
26 31 5 -3 -8 0 -17 7 -21 9 -6 10 -1 7 18 -3 16 0 31 8 38 8 6 12 15 9 19 -3
4 2 11 11 14 9 4 14 13 10 21 -3 9 1 18 9 21 8 4 15 14 15 24 0 11 4 22 10 25
6 4 3 17 -7 33 l-17 27 23 -20 22 -19 -6 26 c-5 20 -2 29 13 37 11 6 22 7 26
4 6 -7 9 11 7 40 -1 9 3 17 8 17 6 0 11 4 11 10 0 5 18 27 39 49 21 22 37 42
34 45 -3 3 1 8 10 12 21 8 57 66 57 92 0 11 6 23 13 25 9 4 8 8 -3 16 -18 13
-21 13 -40 1z m-660 -194 c0 -3 -4 -8 -10 -11 -5 -3 -10 -1 -10 4 0 6 5 11 10
11 6 0 10 -2 10 -4z m45 -89 c1 -7 6 -11 13 -9 7 1 11 -3 10 -10 -2 -7 4 -12
12 -13 8 0 14 -7 12 -15 -2 -7 3 -17 10 -22 10 -6 10 -10 -2 -18 -11 -7 -16
-5 -18 6 -2 9 -10 13 -18 10 -8 -3 -14 1 -14 10 0 8 -4 13 -9 10 -4 -3 -8 13
-8 35 0 22 2 37 6 33 3 -3 6 -11 6 -17z m30 -106 c3 -5 1 -12 -5 -16 -5 -3
-10 1 -10 9 0 18 6 21 15 7z m119 -82 c-7 -11 -34 -12 -34 -1 0 14 11 21 26
15 8 -3 11 -9 8 -14z m193 -31 c-3 -8 -6 -5 -6 6 -1 11 2 17 5 13 3 -3 4 -12
1 -19z m-113 -246 c6 -10 -19 -43 -27 -35 -13 12 -7 43 7 43 8 0 17 -3 20 -8z
m-56 -82 c-15 -23 -28 -26 -28 -7 0 17 10 27 27 27 11 0 11 -4 1 -20z m-44
-68 c0 -15 -7 -38 -14 -52 -8 -14 -13 -34 -12 -45 2 -15 1 -16 -6 -7 -7 11
-10 10 -16 -3 -3 -9 -4 -21 0 -26 3 -5 -2 -12 -10 -15 -9 -3 -16 -12 -16 -20
0 -8 -9 -23 -20 -34 -11 -11 -17 -20 -12 -20 12 -1 -31 -30 -45 -30 -8 0 -3
14 13 37 14 21 23 46 20 56 -3 13 0 17 10 13 9 -3 14 1 14 14 0 12 7 20 16 20
11 0 15 6 11 20 -3 11 -2 20 3 20 13 0 19 39 6 45 -6 3 -1 3 12 1 17 -3 22 0
22 18 0 22 7 36 19 36 3 0 6 -12 5 -28z m386 -4 c0 -4 -4 -8 -9 -8 -6 0 -12 4
-15 8 -3 5 1 9 9 9 8 0 15 -4 15 -9z"/>
<path d="M2500 1919 c-8 -5 -11 -9 -6 -9 6 0 1 -6 -9 -14 -18 -13 -18 -14 4
-26 13 -6 21 -7 17 -2 -3 6 -3 18 0 27 5 13 8 14 15 3 7 -10 9 -9 9 4 0 22
-12 29 -30 17z"/>
<path d="M2467 1473 c-4 -3 -7 -15 -7 -25 0 -10 -7 -18 -16 -18 -19 0 -39 -22
-58 -65 -7 -17 -19 -37 -27 -46 -8 -8 -29 -44 -47 -80 -19 -36 -45 -78 -58
-92 -28 -30 -31 -52 -8 -61 22 -8 33 1 27 22 -3 11 1 19 9 19 24 0 68 35 74
59 10 41 27 27 38 -33 16 -85 17 -105 6 -119 -7 -8 -10 -17 -7 -20 7 -7 -38
-99 -52 -108 -5 -3 -7 -15 -4 -25 3 -11 -4 -28 -16 -40 -12 -12 -21 -28 -21
-36 0 -8 -5 -15 -11 -15 -5 0 -7 -4 -4 -10 12 -20 -69 -115 -88 -103 -6 4 -8
0 -4 -9 6 -18 -53 -78 -78 -78 -8 0 -15 -4 -15 -9 0 -5 -11 -12 -24 -15 -14
-3 -28 -15 -31 -26 -3 -11 -13 -21 -21 -21 -8 -1 -20 -2 -26 -3 -17 -1 -38
-22 -38 -36 0 -8 -10 -9 -30 -5 -29 6 -43 -8 -17 -18 6 -3 -3 -6 -21 -6 -21
-1 -42 -10 -57 -26 -14 -13 -25 -21 -25 -16 0 4 -6 8 -14 8 -7 0 -13 -7 -12
-16 0 -9 -5 -15 -11 -14 -7 2 -13 -2 -13 -8 0 -7 -11 -9 -26 -6 -14 2 -28 0
-30 -7 -2 -6 -27 -12 -55 -12 -28 -1 -54 -5 -58 -10 -9 -13 -192 -11 -216 2
-18 10 -66 22 -120 29 -20 2 -33 7 -105 38 -31 14 -37 14 -51 1 -15 -14 -18
-12 -30 14 -12 28 -69 70 -69 52 0 -6 5 -10 10 -10 6 0 10 -10 10 -21 0 -16 3
-19 13 -11 10 8 13 6 13 -7 0 -21 -23 -24 -30 -4 -7 17 -23 17 -23 -1 0 -8 13
-20 29 -27 15 -6 28 -17 28 -24 0 -8 14 -11 40 -9 22 1 40 -2 40 -8 0 -6 13
-7 31 -3 22 5 34 3 40 -6 8 -14 12 -15 45 -18 8 0 13 -5 9 -10 -3 -5 3 -12 12
-14 12 -3 10 -5 -7 -6 -14 0 -39 3 -57 8 -25 7 -33 6 -37 -6 -6 -14 -8 -14
-25 1 -9 9 -21 13 -24 9 -4 -3 -7 0 -7 7 0 11 -3 11 -12 2 -9 -9 -14 -7 -24 6
-10 13 -13 14 -14 3 0 -11 -5 -10 -20 4 -11 10 -20 15 -20 10 0 -4 -6 -2 -14
5 -12 9 -15 8 -13 -10 1 -15 7 -20 19 -17 9 3 22 -1 29 -9 6 -8 22 -12 35 -10
17 3 24 0 24 -10 0 -8 5 -12 10 -9 6 3 10 2 10 -4 0 -7 8 -7 23 -2 18 7 26 5
35 -10 16 -26 15 -31 -8 -27 -10 2 -19 0 -20 -4 -1 -22 1 -26 16 -32 20 -8 41
4 24 14 -8 5 -7 9 4 13 9 4 15 1 13 -6 -1 -8 13 -12 43 -12 25 0 50 -4 57 -8
7 -4 17 0 23 10 8 13 13 14 16 6 3 -7 14 -13 25 -13 11 0 19 -7 19 -17 0 -15
2 -15 9 -4 5 8 7 20 4 27 -5 13 9 19 72 30 22 4 46 11 53 17 6 5 12 6 12 3 0
-4 9 -2 19 3 16 9 18 8 14 -9 -3 -11 -9 -17 -14 -15 -4 3 -7 -3 -6 -14 0 -11
6 -17 14 -14 7 3 11 8 8 13 -2 4 1 15 9 25 11 15 15 16 37 4 13 -8 26 -17 29
-20 3 -3 18 -9 34 -13 24 -6 26 -5 15 7 -8 8 -26 18 -41 23 -22 8 -24 11 -12
22 12 11 14 10 14 -3 0 -9 9 -15 25 -15 14 0 25 -3 25 -7 0 -5 12 -16 25 -26
19 -14 25 -15 25 -4 0 7 -11 20 -25 27 -42 23 -24 50 28 41 4 -1 18 4 30 11
12 7 27 14 32 14 33 5 54 19 64 41 7 15 18 23 28 21 10 -2 25 4 35 12 34 31
44 37 71 44 15 3 25 11 22 16 -3 6 1 10 11 10 9 0 23 8 30 17 7 10 17 18 22
18 6 0 20 11 31 24 12 13 21 21 21 17 0 -4 9 -2 20 4 17 9 20 8 17 -10 -4 -27
-23 -39 -51 -32 -17 4 -19 2 -8 -9 16 -17 15 -29 -1 -29 -7 0 -31 -16 -53 -35
-32 -29 -36 -37 -24 -45 8 -5 18 -10 23 -10 12 0 8 18 -5 23 -7 3 -1 6 14 6
16 1 27 4 27 9 -4 26 3 44 15 39 15 -6 50 25 40 35 -3 4 4 9 15 13 12 3 21 10
21 14 0 4 11 13 25 19 30 14 33 32 5 27 -11 -2 -22 0 -25 6 -4 5 8 8 27 7 27
-3 33 1 33 17 1 26 14 47 26 40 5 -4 9 3 9 15 0 11 11 32 25 46 14 14 25 35
25 47 0 13 8 30 18 39 29 28 42 47 42 62 0 8 4 17 9 21 6 3 10 13 10 23 0 9 9
44 20 76 12 33 19 68 15 78 -3 10 -1 18 5 18 6 0 8 12 5 30 -4 16 -1 43 5 60
8 23 7 36 -2 52 -9 16 -9 22 1 25 6 3 12 20 12 39 0 19 3 34 6 34 19 0 75 -45
80 -64 7 -29 41 -51 58 -37 7 6 16 8 19 5 4 -4 2 8 -3 25 -7 25 -6 33 6 38 19
7 47 -4 39 -17 -3 -5 0 -7 9 -4 24 9 26 31 5 50 -10 9 -19 14 -19 9 0 -4 -9 4
-21 19 -11 14 -29 26 -39 26 -10 0 -20 5 -22 10 -2 6 -13 12 -26 13 -12 0 -22
7 -22 14 0 17 -20 17 -21 1 -1 -19 -21 44 -21 65 1 9 -6 17 -14 17 -8 0 -14 5
-14 10 0 11 -23 14 -33 3z m-592 -1052 c3 -5 2 -12 -3 -15 -5 -3 -9 1 -9 9 0
17 3 19 12 6z m-499 -119 c-3 -2 -14 -1 -26 3 -17 6 -19 9 -9 22 11 13 14 13
26 -3 7 -10 11 -19 9 -22z m-138 -28 c5 3 17 -3 27 -14 21 -24 14 -38 -7 -16
-12 11 -18 12 -27 3 -8 -8 -11 -8 -11 1 0 7 -5 11 -11 10 -6 -2 -12 7 -14 20
-2 20 0 21 16 6 10 -9 22 -13 27 -10z m72 -9 c7 -8 17 -12 23 -8 6 3 7 1 3 -5
-8 -13 -39 -1 -51 18 -10 16 11 12 25 -5z"/>
<path d="M685 1450 c-3 -5 -1 -10 4 -10 6 0 11 5 11 10 0 6 -2 10 -4 10 -3 0
-8 -4 -11 -10z"/>
<path d="M580 1376 c0 -9 -7 -16 -15 -16 -17 0 -20 -26 -4 -35 6 -4 13 3 16
15 3 13 11 19 19 16 19 -7 18 8 -1 24 -12 10 -15 10 -15 -4z"/>
<path d="M547 857 c-13 -10 -14 -21 -6 -72 6 -33 17 -67 25 -76 12 -13 13 -18
2 -21 -11 -4 -11 -8 0 -21 8 -9 10 -22 6 -28 -4 -8 -3 -9 4 -5 11 6 16 -6 13
-26 0 -5 7 -8 17 -8 15 0 15 -2 2 -10 -13 -9 -12 -13 5 -28 25 -21 60 -74 57
-85 -4 -13 27 -39 38 -32 5 3 10 -3 10 -13 0 -11 13 -30 30 -43 16 -13 30 -30
30 -36 0 -7 6 -13 14 -13 7 0 19 -6 25 -14 7 -8 21 -12 31 -9 15 4 20 0 20
-13 0 -15 2 -16 9 -5 6 9 11 10 15 2 4 -6 5 -14 3 -18 -3 -5 9 -9 26 -9 20 -1
36 -10 50 -28 18 -25 20 -26 32 -9 11 15 9 20 -17 35 -16 10 -33 16 -38 13 -6
-4 -7 2 -3 11 5 14 2 16 -15 12 -15 -4 -26 0 -35 12 -6 9 -15 18 -20 18 -44 6
-77 16 -81 27 -3 9 0 12 9 9 18 -7 61 21 46 31 -6 3 -9 11 -6 16 5 8 -16 14
-37 10 -5 0 -8 6 -8 14 0 9 -6 12 -15 9 -20 -8 -19 1 1 25 14 16 21 17 38 8
12 -7 24 -16 27 -21 4 -4 16 -5 27 -2 13 5 23 2 29 -8 4 -8 13 -16 18 -18 6
-2 9 -6 8 -9 -1 -3 9 -11 22 -17 17 -8 24 -8 28 2 5 12 -16 48 -27 47 -18 -2
-18 0 -1 12 10 8 15 19 11 26 -5 8 -14 6 -32 -8 l-25 -19 -26 26 c-17 17 -28
22 -31 14 -6 -19 -25 -14 -49 12 -15 15 -32 22 -48 20 -22 -2 -24 0 -14 12 9
11 7 14 -9 14 -12 0 -24 5 -28 12 -4 6 -3 8 3 5 6 -4 14 5 17 19 6 21 1 33
-20 55 -15 16 -30 27 -32 24 -5 -5 -28 32 -63 100 -43 85 -44 86 -62 72z m233
-338 c0 -11 -4 -18 -10 -14 -5 3 -7 12 -3 20 7 21 13 19 13 -6z m100 -29 c0
-5 -5 -10 -11 -10 -5 0 -7 5 -4 10 3 6 8 10 11 10 2 0 4 -4 4 -10z m-50 -84
c0 -3 -4 -8 -10 -11 -5 -3 -10 -1 -10 4 0 6 5 11 10 11 6 0 10 -2 10 -4z"/>
<path d="M760 602 c0 -19 96 -82 124 -82 8 0 17 -6 19 -12 4 -10 6 -10 6 0 1
7 5 10 11 7 5 -3 7 0 4 9 -7 18 -27 26 -53 21 -13 -2 -22 3 -26 15 -3 11 -12
17 -19 14 -7 -3 -21 4 -31 16 -19 21 -35 26 -35 12z"/>
<path d="M981 454 c0 -11 3 -14 6 -6 3 7 2 16 -1 19 -3 4 -6 -2 -5 -13z"/>
<path d="M866 383 c-8 -21 -7 -25 3 -18 5 3 16 -4 24 -15 7 -11 16 -17 20 -14
3 3 14 1 25 -5 25 -13 36 -3 17 15 -8 8 -12 21 -9 29 4 11 -1 15 -17 16 -13 0
-32 2 -41 4 -9 2 -19 -4 -22 -12z"/>
<path d="M1996 345 c-9 -13 -16 -30 -15 -37 0 -7 5 -3 11 9 6 13 19 25 29 28
22 7 25 25 5 25 -7 0 -21 -11 -30 -25z"/>
<path d="M1940 314 c0 -8 4 -13 9 -10 5 4 11 0 14 -6 3 -7 4 -3 4 10 -1 25
-27 31 -27 6z"/>
<path d="M1010 310 c-9 -6 -10 -10 -3 -10 6 0 15 5 18 10 8 12 4 12 -15 0z"/>
<path d="M1876 274 c-3 -8 -10 -13 -15 -9 -5 3 -12 1 -16 -5 -3 -5 -20 -10
-36 -10 -17 0 -28 -4 -24 -10 3 -5 22 -7 43 -4 20 3 47 5 60 5 12 1 22 5 22
11 0 5 -5 6 -12 2 -8 -5 -9 -2 -5 9 3 9 2 19 -2 22 -5 3 -12 -2 -15 -11z"/>
<path d="M1590 246 c0 -15 18 -31 26 -23 7 7 -7 37 -17 37 -5 0 -9 -6 -9 -14z"/>
<path d="M1020 220 c-6 -11 -7 -20 -2 -20 6 0 12 9 15 20 3 11 3 20 1 20 -2 0
-8 -9 -14 -20z"/>
<path d="M1490 225 c0 -8 4 -15 8 -15 5 0 9 7 9 15 0 8 -4 15 -9 15 -4 0 -8
-7 -8 -15z"/>
<path d="M1432 221 c-11 -7 -10 -10 3 -15 23 -9 25 -8 25 9 0 17 -9 19 -28 6z"/>
<path d="M1057 204 c4 -11 3 -15 -5 -10 -6 3 -14 1 -18 -5 -4 -7 -3 -9 4 -5 6
3 14 2 17 -4 5 -8 11 -7 21 1 10 8 14 8 14 0 0 -6 5 -11 10 -11 6 0 10 7 10
16 0 10 6 14 15 10 8 -3 15 -1 15 4 0 5 -12 9 -27 8 -16 -1 -36 2 -46 6 -14 7
-16 5 -10 -10z"/>
</g>
</svg>
