<?xml version="1.0" standalone="no"?>
<!DOCTYPE svg PUBLIC "-//W3C//DTD SVG 20010904//EN"
 "http://www.w3.org/TR/2001/REC-SVG-20010904/DTD/svg10.dtd">
<svg version="1.0" xmlns="http://www.w3.org/2000/svg"
 width="294.000000pt" height="294.000000pt" viewBox="0 0 294.000000 294.000000"
 preserveAspectRatio="xMidYMid meet">

<g transform="translate(0.000000,294.000000) scale(0.100000,-0.100000)"
fill="#000000" stroke="none">
<path d="M1480 2722 c-14 -2 -30 -8 -37 -14 -7 -5 -17 -7 -22 -4 -5 4 -12 2
-16 -3 -3 -6 -18 -10 -33 -10 -48 -1 -72 -5 -72 -13 0 -4 -14 -8 -31 -8 -16 0
-28 -4 -25 -9 6 -10 -37 -31 -64 -31 -11 0 -20 -4 -20 -10 0 -5 -6 -10 -13
-10 -18 0 -67 -23 -67 -32 0 -3 -14 -9 -31 -13 -17 -4 -28 -10 -25 -13 4 -3
-12 -14 -34 -24 -25 -11 -38 -23 -34 -30 4 -6 3 -9 -2 -5 -14 8 -76 -21 -69
-33 3 -6 -1 -13 -10 -17 -9 -3 -31 -19 -48 -34 -17 -16 -38 -29 -45 -29 -8 0
-12 -6 -9 -14 4 -10 -2 -16 -16 -18 -12 -2 -26 -13 -32 -25 -5 -13 -15 -23
-21 -23 -7 0 -15 -7 -18 -16 -3 -8 -10 -12 -16 -9 -5 3 -10 1 -10 -5 0 -6 -7
-18 -15 -27 -8 -8 -13 -19 -10 -24 4 -5 -3 -9 -14 -9 -12 0 -21 -7 -21 -15 0
-8 -10 -24 -23 -37 -12 -13 -31 -40 -42 -60 -11 -21 -25 -38 -32 -38 -7 0 -13
-11 -13 -24 0 -13 -7 -29 -15 -36 -8 -6 -14 -15 -13 -18 4 -14 -26 -101 -33
-96 -4 2 -10 -9 -14 -26 -4 -16 -10 -30 -15 -30 -5 0 -7 -9 -5 -20 2 -12 -2
-23 -9 -26 -8 -3 -13 -13 -11 -22 1 -9 -2 -22 -7 -29 -5 -7 -7 -17 -3 -23 3
-5 1 -10 -5 -10 -6 0 -8 -10 -4 -23 3 -13 -1 -48 -9 -78 -8 -30 -11 -63 -7
-74 4 -11 6 -23 4 -26 -5 -9 -5 -92 1 -139 3 -25 6 -55 8 -67 1 -12 5 -25 9
-29 4 -4 2 -14 -5 -22 -10 -13 -9 -15 4 -10 14 5 16 -1 15 -45 0 -38 3 -51 12
-49 8 1 11 -2 7 -8 -3 -5 -2 -26 4 -46 8 -30 8 -35 -6 -30 -8 3 -27 9 -41 12
-15 4 -34 12 -42 18 -8 6 -37 11 -65 11 -45 0 -49 -2 -48 -22 1 -36 1 -36 33
-73 20 -24 26 -37 17 -42 -9 -6 23 -26 53 -32 17 -4 70 -32 70 -37 0 -4 18 -9
40 -13 25 -4 43 -14 50 -26 14 -27 32 -25 68 5 17 14 35 25 41 25 6 0 11 6 11
13 0 7 12 25 27 42 27 29 35 45 34 78 0 9 7 17 16 17 9 0 13 6 10 14 -3 8 1
20 9 27 10 8 11 15 4 25 -8 9 -7 15 3 21 8 4 22 23 32 42 14 29 15 35 3 48
-15 14 -48 8 -48 -8 0 -5 -17 -16 -37 -24 -20 -9 -51 -32 -69 -52 -18 -21 -34
-35 -36 -33 -20 32 -27 53 -22 62 4 7 3 8 -4 4 -16 -10 -14 5 3 28 11 14 12
23 4 32 -6 8 -11 34 -12 58 0 27 -4 43 -10 39 -6 -4 -8 1 -4 10 4 12 1 17 -10
17 -13 0 -13 3 -3 15 9 11 10 18 1 29 -6 7 -9 22 -5 32 4 14 3 15 -4 6 -5 -8
-12 -13 -16 -13 -20 3 -26 -1 -26 -14 0 -8 4 -15 9 -15 4 0 7 -12 5 -26 -1
-14 3 -27 11 -30 8 -3 11 -12 9 -19 -3 -7 -1 -16 5 -20 6 -3 11 -1 11 5 0 6 5
8 11 5 6 -5 4 -12 -8 -20 -15 -11 -16 -15 -3 -31 8 -10 10 -15 4 -11 -7 4 -14
0 -18 -8 -3 -8 -1 -15 3 -15 5 0 11 -6 14 -14 4 -9 0 -13 -11 -12 -10 2 -17
11 -16 25 1 11 -2 21 -7 21 -5 0 -6 7 -3 15 4 8 2 15 -4 15 -9 0 -13 17 -27
110 -14 91 -13 110 1 110 8 0 20 -11 26 -25 l11 -25 19 22 c12 14 15 24 8 28
-16 10 -24 90 -10 90 6 0 8 5 4 12 -14 22 -10 106 3 101 16 -6 17 13 1 23 -8
5 -6 11 6 19 16 12 16 14 0 30 -16 16 -16 18 -2 26 11 6 14 17 10 31 -4 16 -2
20 10 15 16 -6 20 22 5 34 -4 3 15 49 42 102 27 53 48 97 46 97 -2 0 14 19 35
42 22 23 40 45 40 50 0 4 7 8 16 8 8 0 13 4 9 9 -3 5 4 12 15 16 11 3 20 11
20 16 0 6 5 7 11 3 8 -4 9 1 4 15 -6 20 -4 21 21 15 24 -6 26 -5 21 15 -3 11
-1 19 4 15 5 -3 9 0 9 5 0 6 18 18 40 27 22 9 40 20 40 25 0 5 9 9 20 9 11 0
20 7 20 15 0 8 5 14 12 13 7 -2 12 4 13 12 0 8 5 15 10 16 20 2 65 24 65 32 0
12 49 34 60 27 5 -3 11 -1 15 5 4 6 12 7 18 4 7 -4 1 5 -12 19 -28 31 -37 29
-22 -5 9 -18 9 -20 -1 -7 -9 14 -17 15 -41 7 -22 -8 -26 -13 -15 -20 11 -8 10
-9 -1 -6 -21 6 -26 28 -7 28 9 0 16 7 16 16 0 8 4 13 9 10 10 -6 61 16 61 27
0 4 15 7 33 7 24 0 28 3 17 10 -12 8 -10 10 8 10 13 0 21 4 18 8 -2 4 3 8 12
9 26 2 45 8 70 22 21 11 23 11 20 -6 -2 -10 -8 -18 -13 -19 -6 0 -22 -4 -37
-8 -24 -7 -27 -12 -22 -35 9 -36 14 -39 21 -13 5 20 23 27 59 23 16 -2 24 35
11 48 -8 8 -7 15 2 24 11 10 13 9 8 -5 -9 -25 23 -48 51 -37 13 5 21 12 19 16
-3 5 13 9 35 11 45 3 58 8 58 22 0 6 -9 6 -24 0 -21 -7 -23 -6 -19 11 3 11 10
16 17 12 15 -10 35 -15 71 -18 17 -1 30 -7 30 -13 0 -6 3 -14 8 -18 4 -4 7 -2
7 5 0 8 7 10 19 6 11 -3 22 -1 25 4 4 6 13 8 21 5 8 -4 12 -10 9 -15 -3 -5 6
-9 20 -9 14 0 26 5 26 10 0 6 7 10 15 10 8 0 15 -4 15 -9 0 -11 79 -11 86 1 3
5 12 4 20 -3 8 -6 14 -8 14 -4 0 5 9 0 20 -10 18 -16 20 -16 26 -1 3 9 10 16
16 16 5 0 6 -4 3 -10 -3 -5 2 -10 12 -10 10 0 24 -9 31 -21 9 -14 19 -18 32
-14 13 4 30 -1 46 -14 15 -11 30 -18 34 -16 5 3 11 1 15 -5 3 -5 14 -10 24
-10 10 0 21 -9 24 -20 3 -11 12 -20 21 -20 9 0 16 -7 16 -15 0 -8 5 -15 10
-15 6 0 10 -11 10 -24 0 -24 51 -85 73 -87 6 -1 24 -3 39 -4 23 -3 27 0 26 24
-1 16 2 33 6 40 4 6 2 11 -3 11 -6 0 -11 7 -11 15 0 8 -4 15 -9 15 -8 0 -24
37 -22 53 1 4 -4 7 -10 7 -5 0 -8 4 -4 9 6 11 -33 26 -42 17 -4 -3 -11 4 -17
17 -7 12 -20 22 -31 22 -11 -1 -22 2 -25 5 -10 10 -92 50 -104 50 -17 0 -140
60 -147 72 -3 5 -10 10 -15 10 -5 0 -13 2 -19 3 -39 12 -72 18 -83 16 -8 -1
-20 3 -28 10 -8 6 -14 8 -14 4 0 -4 -7 -2 -15 5 -12 10 -15 10 -15 -1 0 -11
-2 -11 -10 1 -7 11 -10 11 -10 2 0 -9 -5 -10 -18 -3 -28 15 -73 19 -106 10
-17 -5 -32 -5 -35 -1 -4 4 -17 6 -31 4z m20 -72 c0 -5 -2 -10 -4 -10 -3 0 -8
5 -11 10 -3 6 -1 10 4 10 6 0 11 -4 11 -10z m129 -5 c10 -6 12 -4 6 4 -6 10
-3 11 14 2 13 -7 21 -8 21 -2 0 6 8 7 17 4 12 -5 13 -8 4 -11 -11 -4 -11 -6 0
-14 10 -7 8 -8 -6 -3 -22 8 -24 8 -78 2 -20 -3 -40 -1 -43 4 -3 5 -10 7 -15 4
-5 -4 -9 -4 -9 0 0 18 65 26 89 10z m-249 -15 c0 -5 -7 -7 -15 -4 -8 4 -15 8
-15 10 0 2 7 4 15 4 8 0 15 -4 15 -10z m360 -4 c0 -2 -7 -6 -15 -10 -8 -3 -15
-1 -15 4 0 6 7 10 15 10 8 0 15 -2 15 -4z m-405 -24 c-3 -3 -11 0 -18 7 -9 10
-8 11 6 5 10 -3 15 -9 12 -12z m-355 -182 c0 -5 -7 -10 -15 -10 -8 0 -15 5
-15 10 0 6 7 10 15 10 8 0 15 -4 15 -10z m-552 -909 c3 -8 -1 -12 -9 -9 -7 2
-15 10 -17 17 -3 8 1 12 9 9 7 -2 15 -10 17 -17z"/>
<path d="M1145 2510 c3 -5 4 -10 1 -10 -2 0 -12 -3 -22 -7 -12 -4 -15 -3 -10
5 4 7 2 12 -3 12 -6 0 -11 -9 -11 -19 0 -15 7 -19 30 -19 16 1 27 4 25 9 -3 4
4 5 14 2 15 -4 20 0 18 16 -1 15 -8 21 -25 21 -13 0 -20 -4 -17 -10z"/>
<path d="M2420 1930 c-11 -11 -27 -20 -35 -20 -8 0 -16 -4 -16 -10 -2 -14 -5
-22 -13 -42 -5 -10 -6 -25 -2 -33 3 -8 -1 -21 -9 -28 -8 -8 -11 -24 -8 -36 3
-12 1 -21 -6 -21 -6 0 -11 -9 -11 -20 0 -11 -4 -20 -10 -20 -13 0 -13 -46 1
-71 6 -12 17 -18 25 -15 8 3 14 -1 14 -8 0 -9 9 -12 26 -8 17 3 31 16 42 41 9
20 20 38 23 41 3 3 11 15 18 28 6 12 16 22 21 22 13 0 40 -66 40 -96 0 -13 8
-28 18 -33 9 -6 11 -11 5 -11 -15 0 -18 -30 -4 -30 6 0 8 -9 6 -20 -2 -11 0
-18 4 -15 12 7 18 -14 15 -50 -9 -95 -10 -232 -3 -241 5 -6 4 -26 -1 -45 -6
-18 -10 -46 -10 -61 0 -16 -5 -28 -11 -28 -6 0 -9 -7 -5 -15 3 -8 -3 -33 -14
-56 -10 -23 -17 -51 -15 -61 2 -10 0 -16 -6 -13 -5 4 -9 -3 -9 -14 0 -11 -9
-26 -20 -34 -11 -8 -17 -17 -13 -20 3 -4 1 -7 -5 -7 -7 0 -12 -5 -12 -11 0 -6
-11 -20 -26 -31 -14 -11 -23 -23 -20 -26 3 -3 1 -12 -6 -19 -9 -11 -9 -17 3
-24 10 -7 7 -8 -11 -6 -28 4 -55 -17 -44 -35 4 -7 4 -11 1 -7 -4 3 -57 -43
-118 -103 -61 -59 -124 -113 -139 -120 -16 -7 -26 -16 -24 -20 3 -4 -2 -8 -10
-8 -9 0 -16 5 -16 12 0 6 -9 3 -19 -9 -11 -11 -40 -29 -65 -39 -25 -11 -46
-22 -46 -26 0 -5 -11 -8 -25 -8 -14 0 -25 -4 -25 -8 0 -5 -19 -13 -42 -19 -48
-12 -155 -42 -178 -50 -8 -3 -31 -7 -50 -10 -51 -7 -75 -11 -75 -13 0 -6 -57
-13 -115 -14 -36 -1 -71 -5 -77 -9 -7 -5 -18 -5 -23 -2 -6 4 -27 9 -48 11 -20
3 -41 9 -46 14 -4 4 -15 6 -22 3 -8 -3 -36 0 -63 7 -37 9 -55 9 -70 0 -17 -9
-21 -8 -21 5 0 10 -5 13 -12 9 -6 -4 -16 -1 -22 7 -17 22 -61 48 -93 53 -15 3
-29 10 -31 16 -2 5 -12 10 -23 10 -10 0 -19 7 -19 15 0 26 -37 37 -69 21 -41
-22 -50 -56 -15 -56 12 0 34 -17 90 -70 12 -11 28 -20 37 -20 8 0 23 -7 31
-16 9 -8 20 -13 25 -10 5 4 17 -1 25 -10 9 -9 22 -17 29 -18 6 -2 24 -8 39
-14 14 -6 35 -11 45 -11 62 -2 101 -9 122 -20 14 -8 21 -9 17 -2 -5 7 1 11 14
11 14 0 19 -4 14 -12 -6 -10 -4 -10 7 0 16 15 33 16 23 1 -4 -7 0 -9 14 -5 44
14 69 18 127 20 33 1 70 8 82 14 12 7 44 12 72 12 27 0 53 5 56 10 4 6 11 8
16 4 5 -3 17 0 26 8 14 11 16 11 9 -1 -6 -9 0 -8 17 4 14 9 28 16 32 15 14 -4
94 13 125 28 19 9 44 17 54 19 11 2 33 10 49 18 17 8 36 15 43 15 7 0 20 8 30
17 10 10 20 18 23 18 3 0 5 2 4 5 -1 3 10 7 24 8 14 1 46 19 72 41 25 21 55
40 66 43 12 2 19 10 17 21 -2 10 4 17 13 17 27 0 79 31 66 39 -9 6 -8 11 3 20
8 7 20 10 26 6 6 -3 10 3 10 14 0 16 6 21 25 21 18 0 25 5 25 20 0 13 7 20 20
20 11 0 20 5 20 11 0 6 14 22 30 36 17 13 30 31 30 38 0 7 8 19 17 26 14 12
16 12 8 0 -6 -10 -4 -12 4 -7 7 5 10 11 7 14 -3 3 2 14 11 24 14 16 15 22 4
40 -7 11 -8 17 -2 14 13 -8 54 31 46 44 -4 6 -2 10 4 10 6 0 8 7 5 15 -4 8 -1
15 5 15 6 0 8 7 5 15 -4 10 0 15 14 15 20 0 21 3 10 50 -2 9 3 14 11 12 9 -2
12 5 9 23 -3 14 -2 25 3 25 4 0 11 21 15 48 3 26 11 52 16 59 5 6 6 28 2 47
-5 27 -3 36 7 36 11 0 11 2 -1 10 -12 7 -12 12 -2 22 14 14 16 62 2 88 -5 10
-11 32 -12 50 -2 20 -12 39 -27 52 -21 16 -23 21 -11 28 14 9 7 14 -14 11 -4
-1 -5 10 -2 24 5 19 3 25 -11 26 -10 0 -13 3 -7 5 12 5 7 44 -5 44 -3 0 -7 21
-9 47 -1 25 -7 52 -13 60 -21 24 20 28 41 3 17 -20 23 -21 51 -11 17 6 35 8
40 5 5 -3 9 4 9 16 0 11 -7 23 -15 26 -8 4 -15 10 -15 15 0 5 7 9 15 9 22 0
18 23 -7 40 -45 29 -70 40 -79 34 -5 -3 -16 2 -25 10 -8 9 -27 16 -42 16 -15
0 -38 9 -52 20 -32 25 -45 25 -70 0z m207 -502 c-3 -8 -6 -5 -6 6 -1 11 2 17
5 13 3 -3 4 -12 1 -19z m26 -25 c-7 -3 -13 -11 -13 -19 0 -18 -14 -18 -29 0
-10 11 -6 16 16 24 15 5 30 7 33 4 3 -2 -1 -7 -7 -9z m3 -91 c-4 -3 -14 2 -24
12 -16 18 -16 18 6 6 13 -6 21 -14 18 -18z"/>
</g>
</svg>
